<?xml version="1.0" standalone="no"?>
<!DOCTYPE svg PUBLIC "-//W3C//DTD SVG 20010904//EN"
 "http://www.w3.org/TR/2001/REC-SVG-20010904/DTD/svg10.dtd">
<svg version="1.0" xmlns="http://www.w3.org/2000/svg"
 width="1600.000000pt" height="993.000000pt" viewBox="0 0 1600.000000 993.000000"
 preserveAspectRatio="xMidYMid meet">
<metadata>
Created by potrace 1.15, written by Peter Selinger 2001-2017
</metadata>
<g transform="translate(0.000000,993.000000) scale(0.100000,-0.100000)"
fill="black" stroke="none">
<path d="M9840 9569 c-324 -33 -651 -134 -1100 -341 -322 -149 -930 -454
-1098 -551 -281 -162 -563 -370 -759 -560 -479 -464 -668 -988 -529 -1468 125
-430 556 -1040 1253 -1775 90 -95 163 -174 163 -177 0 -9 -430 -409 -645 -598
-190 -168 -638 -545 -822 -692 l-73 -58 -66 46 c-36 25 -158 116 -272 201
-114 86 -220 166 -237 178 -533 399 -778 604 -1217 1020 -150 141 -378 375
-468 479 -40 46 -66 47 -125 7 -24 -16 -50 -30 -59 -30 -8 0 -21 -9 -29 -21
-9 -12 -17 -16 -21 -10 -4 7 -19 3 -42 -9 -19 -11 -38 -19 -43 -17 -4 1 -20
-13 -35 -30 -15 -18 -36 -33 -46 -33 -10 0 -22 -4 -25 -10 -3 -5 -18 -10 -33
-10 -18 0 -38 -12 -60 -36 -29 -31 -37 -35 -66 -30 -25 5 -39 1 -59 -14 -15
-12 -30 -22 -34 -23 -4 -1 -8 -6 -8 -12 0 -5 -4 -15 -8 -21 -13 -21 71 -129
234 -301 440 -463 912 -954 965 -1003 32 -30 103 -96 157 -147 126 -119 351
-316 597 -523 107 -90 211 -178 231 -196 l37 -32 -116 -88 c-64 -49 -177 -136
-252 -193 -166 -127 -565 -425 -838 -626 -219 -162 -210 -155 -489 -354 -482
-345 -969 -712 -1060 -799 -43 -42 -52 -56 -58 -98 -6 -44 -3 -55 21 -92 15
-23 44 -53 66 -67 45 -30 11 -41 324 108 581 278 956 401 1538 506 66 12 122
24 125 26 4 2 38 6 76 10 39 4 73 9 76 11 3 1 28 6 55 9 27 3 72 10 99 15 174
31 649 74 1105 100 96 5 213 12 260 15 47 3 126 7 175 10 202 12 480 46 615
76 103 23 146 42 220 95 49 35 60 51 60 85 0 13 19 28 61 50 34 17 75 45 93
64 17 18 63 50 101 70 39 21 88 52 110 70 40 31 97 68 187 118 135 77 104 171
-101 303 -47 30 -179 111 -293 178 -222 132 -517 318 -638 403 -41 28 -97 67
-123 85 -67 46 -140 98 -304 217 l-142 102 342 267 c188 146 387 302 442 346
202 162 583 476 685 565 58 50 107 91 110 91 3 0 42 -32 85 -71 85 -76 292
-255 439 -379 219 -186 539 -431 761 -582 39 -26 90 -62 115 -80 25 -18 99
-72 165 -120 66 -48 149 -108 185 -135 187 -137 652 -438 740 -480 8 -4 52
-28 97 -54 45 -26 90 -49 100 -50 10 -2 31 9 46 23 16 15 38 28 50 30 19 3 22
9 20 40 -1 24 3 38 12 42 10 3 15 20 15 46 0 38 2 41 21 35 46 -15 82 -12 87
7 3 13 10 17 22 13 23 -7 50 29 43 56 -5 17 -2 19 21 13 21 -5 35 0 66 25 21
17 46 31 54 31 8 0 17 4 21 9 3 6 26 20 51 33 25 12 50 30 55 40 5 9 26 25 47
34 20 10 53 30 73 45 19 15 55 35 80 45 24 9 54 28 66 42 l22 26 -21 23 c-12
13 -25 23 -29 23 -40 0 -551 339 -979 650 -128 93 -226 162 -345 244 -322 222
-518 362 -610 436 -38 31 -93 74 -121 96 -138 105 -464 378 -592 494 l-71 65
482 485 c464 467 712 735 933 1010 462 576 758 1140 841 1600 21 116 23 379 4
495 -52 320 -160 517 -361 652 -207 140 -521 198 -880 162z m-380 -664 c256
-41 441 -166 508 -342 87 -226 104 -573 42 -867 -23 -114 -97 -311 -184 -500
-160 -342 -458 -792 -746 -1126 -31 -36 -100 -117 -155 -180 -54 -63 -165
-187 -247 -275 l-149 -161 -113 116 c-149 152 -322 349 -481 545 -362 446
-552 770 -631 1080 -46 176 -33 407 32 590 79 220 219 440 389 611 76 77 89
85 280 181 233 117 513 227 705 276 114 30 248 53 410 71 57 6 249 -4 340 -19z
m-3610 -6420 c313 -256 740 -566 938 -680 17 -11 32 -22 32 -26 0 -4 -48 -10
-107 -13 -752 -48 -1098 -84 -1509 -156 -545 -97 -882 -194 -1313 -381 -62
-28 -115 -48 -118 -46 -7 8 95 85 507 382 258 187 670 491 1089 803 283 211
327 240 342 230 9 -7 72 -58 139 -113z"/>
<path d="M12790 7516 c-6 -8 -17 -13 -24 -10 -6 2 -25 -9 -41 -26 -16 -16 -34
-30 -41 -30 -6 0 -22 -9 -36 -19 -15 -13 -29 -16 -38 -11 -9 5 -24 0 -44 -15
-17 -12 -36 -20 -43 -18 -7 2 -42 -20 -78 -51 -57 -46 -73 -54 -105 -53 -30 2
-48 -6 -94 -40 -37 -28 -68 -43 -91 -45 -20 -1 -43 -10 -51 -19 -9 -10 -21
-16 -28 -13 -18 7 -373 -349 -515 -516 -215 -253 -264 -310 -366 -429 -56 -64
-146 -170 -200 -237 -55 -67 -149 -180 -209 -253 -59 -73 -160 -191 -223 -264
-63 -73 -168 -198 -234 -280 -105 -130 -119 -152 -119 -185 1 -40 28 -81 68
-102 21 -10 27 -9 46 9 12 12 27 21 34 21 6 0 16 9 22 21 16 29 80 99 92 99 5
0 30 17 56 38 52 41 70 53 120 78 19 10 36 23 39 31 3 7 11 13 18 13 7 0 25
10 41 22 16 13 48 32 71 44 32 15 67 51 135 136 51 64 188 221 303 349 116
129 274 307 352 395 78 89 224 249 325 355 101 107 239 255 307 329 69 74 241
253 384 397 187 187 258 266 254 277 -8 20 -70 22 -87 2z"/>
<path d="M12923 5906 c-13 -7 -31 -20 -41 -29 -10 -10 -26 -17 -34 -17 -9 0
-21 -7 -28 -15 -7 -8 -20 -15 -29 -15 -9 0 -29 -7 -45 -15 -15 -8 -31 -13 -35
-10 -4 2 -25 -13 -46 -35 -29 -30 -51 -42 -90 -50 -33 -7 -65 -22 -85 -40 -25
-22 -44 -30 -71 -30 -20 0 -42 -7 -49 -15 -7 -8 -18 -15 -24 -15 -7 0 -26 -19
-42 -42 -415 -586 -523 -747 -537 -800 -8 -33 -6 -41 18 -70 15 -18 38 -38 50
-45 19 -11 25 -9 40 7 10 11 24 20 31 20 6 0 26 23 44 50 28 44 60 73 81 75 3
0 27 18 55 41 27 22 66 48 86 57 20 10 50 28 65 40 42 34 103 73 145 92 21 9
48 34 64 58 52 80 229 333 309 442 150 203 255 357 249 366 -7 13 -55 9 -81
-5z"/>
<path d="M14458 5803 c-6 -8 -13 -11 -16 -8 -3 3 -20 -6 -38 -20 -18 -14 -37
-25 -41 -25 -5 0 -27 -9 -49 -19 -22 -11 -54 -23 -70 -27 -16 -4 -50 -26 -76
-50 -34 -32 -55 -44 -78 -44 -29 0 -101 -37 -115 -60 -3 -5 -21 -10 -39 -10
-17 0 -37 -5 -43 -11 -6 -6 -22 -16 -34 -23 -23 -11 -251 -263 -452 -500 -56
-66 -129 -151 -163 -190 -293 -342 -694 -897 -708 -981 -6 -37 -4 -43 34 -80
35 -34 43 -38 58 -27 9 7 27 16 38 21 12 5 32 25 44 43 35 50 72 88 87 88 8 0
33 18 55 40 23 22 48 40 55 40 16 0 57 25 93 55 21 18 120 79 170 104 8 4 52
61 97 127 260 380 553 745 1003 1249 216 243 261 296 257 308 -5 16 -55 16
-69 0z"/>
</g>
</svg>
