<?xml version="1.0" encoding="utf-8"?>
<!-- Generator: Adobe Illustrator 24.3.0, SVG Export Plug-In . SVG Version: 6.00 Build 0)  -->
<svg version="1.1" id="Layer_1" xmlns="http://www.w3.org/2000/svg" xmlns:xlink="http://www.w3.org/1999/xlink" x="0px" y="0px"
	 viewBox="0 0 527.7 323.7" style="enable-background:new 0 0 527.7 323.7;" xml:space="preserve">
<style type="text/css">
	.st0{fill:#DF001A;}
</style>
<path d="M65.5,37.9c10.5,0,18.9-8.5,18.9-18.9S75.9,0,65.5,0c-10.5,0-19,8.5-19,18.9S55,37.9,65.5,37.9L65.5,37.9z"/>
<path class="st0" d="M412.5,81.2C337,13.1,296.6,73.6,263.8,74c-32.8-0.4-73-61-148.5,7.2C37.8,151.2,9.8,177.1,0,180.1
	C18.5,196,83.5,323.6,263.8,323.7c180.2-0.2,245.4-127.7,264-143.6C518,177.1,490,151.2,412.5,81.2z"/>
</svg>
